# xmcd CD database file
#
# Track frame offsets:
#	150
#	18263
#	33561
#	47039
#	62274
#	77523
#	91320
#	106899
#	119437
#	136151
#	154222
#
# Disc length: 2269 seconds
#
# Revision: 1
# Processed by: cddbd v1.5.2PL0 Copyright (c) Steve Scherf et al.
# Submitted via: CDex 1.79
#
DISCID=7f08db0b
DTITLE=Rodney Redman - Rodney Redman
DYEAR=2002
DGENRE=Country
TTITLE0=These Days
TTITLE1=I'd Like To Believe That
TTITLE2=Two Ways To Fall
TTITLE3=Hangovers And Heartaches
TTITLE4=Smoke From A Bridge
TTITLE5=Livin' In Black And White
TTITLE6=Grain Of Salt
TTITLE7=Back In My Baby's Arms
TTITLE8=It's A Wonder I'm Alive
TTITLE9=Bad Case Of Missing You
TTITLE10=I'm Ready To Know Who You Are
EXTD=YEAR: 2002
EXTT0=
EXTT1=
EXTT2=
EXTT3=
EXTT4=
EXTT5=
EXTT6=
EXTT7=
EXTT8=
EXTT9=
EXTT10=
PLAYORDER=
